<?xml version="1.0" standalone="no"?>
<!DOCTYPE svg PUBLIC "-//W3C//DTD SVG 20010904//EN" "http://www.w3.org/TR/2001/REC-SVG-20010904/DTD/svg10.dtd">
<svg version="1.0" xmlns="http://www.w3.org/2000/svg" width="256.000000pt" height="256.000000pt"
  viewBox="0 0 256.000000 256.000000" preserveAspectRatio="xMidYMid meet">

  <g transform="translate(0.000000,256.000000) scale(0.100000,-0.100000)" fill="#FF3F7C" stroke="none">
    <path d="M80 1280 l0 -1200 1200 0 1200 0 0 1200 0 1200 -1200 0 -1200 0 0
-1200z m1682 891 c36 -14 86 -70 104 -117 12 -33 15 -66 12 -141 -4 -82 -9
-107 -32 -153 -55 -109 -160 -180 -263 -180 l-43 0 0 -227 c0 -209 -2 -233
-23 -294 -67 -196 -215 -324 -422 -365 -172 -33 -315 28 -382 163 l-28 58 0
400 0 400 29 62 c50 109 148 178 268 190 107 10 173 -37 204 -145 47 -160 -35
-361 -174 -428 -20 -10 -63 -20 -94 -22 l-58 -4 0 -168 c0 -98 5 -181 11 -201
31 -93 104 -137 209 -126 109 12 195 71 248 171 l27 51 5 405 c6 437 5 434 63
533 31 52 102 108 167 130 50 18 136 22 172 8z m-89 -1401 c57 -45 36 -115
-70 -230 -85 -91 -221 -160 -319 -160 -40 0 -74 39 -74 85 0 42 25 63 96 82
32 8 71 21 87 29 46 24 108 85 144 142 47 73 89 89 136 52z" />
    <path d="M1589 1985 c-39 -21 -62 -78 -57 -137 8 -81 58 -109 128 -73 40 20
60 63 60 125 0 41 -5 56 -25 75 -27 28 -66 32 -106 10z" />
    <path d="M904 1771 c-31 -19 -64 -82 -64 -122 0 -35 32 -90 57 -100 33 -12
100 16 117 50 34 67 27 145 -17 176 -29 20 -56 19 -93 -4z" />
  </g>
</svg>